<svg id="Layer_1" data-name="Layer 1" xmlns="http://www.w3.org/2000/svg" viewBox="0 0 48 48"><defs><style>.cls-1{fill:#b3b3b3;}.cls-2{fill:gray;}.cls-3{fill:#999;}</style></defs><path class="cls-1" d="M24.19,47.75A24.39,24.39,0,0,1,11.08,43.9L11,44a23.87,23.87,0,1,1,26,0l-.09-.12a19.57,19.57,0,0,1-2.59,1.63c-.7.34-1.46.65-2.25.94a23.79,23.79,0,0,1-7.89,1.4Z" transform="translate(0 0)"/><path class="cls-1" d="M24,.25A23.75,23.75,0,0,1,36.94,43.92l-.09-.12a18.89,18.89,0,0,1-2.57,1.61,22.61,22.61,0,0,1-2.23.94,25.26,25.26,0,0,1-7.86,1.28,24.4,24.4,0,0,1-13.06-3.84l-.07.12A23.75,23.75,0,0,1,24,.25M24,0a24,24,0,1,0,8.13,46.58,25.25,25.25,0,0,1-7.94,1.3h0A24.73,24.73,0,0,1,11,44h0a24.73,24.73,0,0,0,13.17,3.86h0a25.25,25.25,0,0,0,7.94-1.3,22.4,22.4,0,0,0,2.26-.94A20,20,0,0,0,37,44a20,20,0,0,1-2.61,1.64A24,24,0,0,0,24,0Z" transform="translate(0 0)"/><ellipse class="cls-2" cx="24" cy="14.5" rx="9" ry="8.5"/><path class="cls-3" d="M24,48" transform="translate(0 0)"/><path class="cls-3" d="M21,40" transform="translate(0 0)"/><path class="cls-3" d="M46,44" transform="translate(0 0)"/><path class="cls-2" d="M17.49,47.23l-.27-.07Z" transform="translate(0 0)"/><path class="cls-2" d="M24.47,48.11h0Z" transform="translate(0 0)"/><path class="cls-2" d="M19.21,47.63l-.35-.07Z" transform="translate(0 0)"/><path class="cls-2" d="M21,47.91l-.42,0Z" transform="translate(0 0)"/><path class="cls-2" d="M22.71,48.08l-.49,0Z" transform="translate(0 0)"/><path class="cls-2" d="M29.7,47.44l-.67.17Z" transform="translate(0 0)"/><path class="cls-2" d="M28,47.8l-.65.11Z" transform="translate(0 0)"/><path class="cls-2" d="M31.39,46.94l-.69.24Z" transform="translate(0 0)"/><path class="cls-2" d="M26.23,48l-.6,0Z" transform="translate(0 0)"/><path class="cls-2" d="M34.6,45.52A20.28,20.28,0,0,0,37,44c0-.35,0-.68,0-1,0-9.94-5.82-18-13-18S11,33.06,11,43c0,.34,0,.68,0,1a24.61,24.61,0,0,0,22.32,2.13l.59-.26Z" transform="translate(0 0)"/><path class="cls-2" d="M14.17,46.12,14,46.06Z" transform="translate(0 0)"/><path class="cls-2" d="M15.81,46.73l-.2-.07Z" transform="translate(0 0)"/><path class="cls-2" d="M12.59,45.41l-.07,0Z" transform="translate(0 0)"/><path class="cls-2" d="M33,46.3l-.69.3Z" transform="translate(0 0)"/><path class="cls-2" d="M34.6,45.52l-.65.37Z" transform="translate(0 0)"/></svg>
